<svg xmlns="http://www.w3.org/2000/svg" viewBox="0 0 74.91 62.33"><defs><style>.cls-1{fill:#eee;}.cls-2{fill:#979797;}</style></defs><path class="cls-1" d="M29.73,59.87a4,4,0,0,0,0,.41,4,4,0,0,0,4,4h33c2.21,0,3-1.79,3-4q0-.2,0-.4c10.53.87,17.93,2.37,17.93,4S80.48,67.12,68.89,68a274.73,274.73,0,0,1-37.46,0c-11.59-.84-18.73-2.42-18.73-4.12S19.15,60.74,29.73,59.87Z" transform="translate(-12.71 -6.28)"/><path class="cls-1" d="M53.63,55.26,64.21,44.65A1.25,1.25,0,1,1,66,46.42L54.51,57.91a1.24,1.24,0,0,1-1.76,0h0l-7-7.07a1.25,1.25,0,0,1,1.76-1.77Z" transform="translate(-12.71 -6.28)"/><path class="cls-2" d="M60,18.28a1.38,1.38,0,0,0,1.08-.45,1,1,0,0,0,.19-1l-.75-2.78a2.12,2.12,0,0,0-2-1.4H55.66A1.79,1.79,0,0,1,54,11.46l-.75-2.78a2.12,2.12,0,0,0-2-1.4H48.38a2.12,2.12,0,0,0-2,1.4l-.75,2.78A1.79,1.79,0,0,1,44,12.69H41.1a2.12,2.12,0,0,0-2,1.4l-.75,2.78a1,1,0,0,0,.19,1,1.38,1.38,0,0,0,1.08.45ZM53.42,55.7l11-11a.64.64,0,1,1,.9.9l-11.2,11.2a.64.64,0,0,1-.2.14l-.09.12a.64.64,0,0,1-.9,0l-6.87-6.87a.64.64,0,0,1,.9-.9ZM20.09,15l.75-1.38L21.58,15l1.38.75-1.38.75-.75,1.38-.75-1.38-1.38-.75ZM16.21,58.16V56.91a.63.63,0,0,1,1.25,0v1.25h1.25a.63.63,0,1,1,0,1.25H17.46v1.25a.62.62,0,0,1-1.25,0V59.41H15a.63.63,0,0,1,0-1.25Zm60-49V7.91a.63.63,0,0,1,1.25,0V9.15h1.25a.63.63,0,0,1,0,1.25H77.46v1.25a.63.63,0,1,1-1.25,0V10.41H75a.62.62,0,0,1,0-1.25ZM40.83,40.28h14a.5.5,0,0,1,0,1h-14a.5.5,0,0,1,0-1Zm0-6h19a.5.5,0,0,1,0,1h-19a.5.5,0,0,1,0-1Zm0-6h19a.5.5,0,0,1,0,1h-19a.5.5,0,0,1,0-1ZM29.08,45.33a.5.5,0,0,1,.2.2l1.05,1.94,1.05-1.94a.5.5,0,0,1,.2-.2l1.94-1.05-1.94-1.05a.5.5,0,0,1-.2-.2l-1.05-1.94L29.28,43a.5.5,0,0,1-.2.2l-1.94,1.05ZM61.49,13.78v0l.75,2.78a2,2,0,0,1-.39,1.86,2.37,2.37,0,0,1-1.84.81H39.64a2.37,2.37,0,0,1-1.84-.81,2,2,0,0,1-.39-1.86l.75-2.79v0H33.83a3.5,3.5,0,0,0-3.5,3.5V39.54a.49.49,0,0,1,.44.26l1.42,2.62,2.62,1.42a.5.5,0,0,1,0,.88l-2.62,1.42-1.42,2.62a.49.49,0,0,1-.44.26V60.19a3.5,3.5,0,0,0,3.5,3.5h32a3.5,3.5,0,0,0,3.5-3.5V17.28a3.5,3.5,0,0,0-3.5-3.5Zm-.56-1h4.9a4.5,4.5,0,0,1,4.5,4.5V60.19a4.5,4.5,0,0,1-4.5,4.5h-32a4.5,4.5,0,0,1-4.5-4.5V47.73l-.86-1.59-2.62-1.42a.5.5,0,0,1,0-.88l2.62-1.42.86-1.59V17.28a4.5,4.5,0,0,1,4.5-4.5h4.9a3.22,3.22,0,0,1,2.36-1.09H44a.81.81,0,0,0,.68-.49l.75-2.79a3.11,3.11,0,0,1,2.94-2.14h2.91a3.11,3.11,0,0,1,2.94,2.14L55,11.2a.81.81,0,0,0,.68.49h2.91A3.22,3.22,0,0,1,60.93,12.78Z" transform="translate(-12.71 -6.28)"/><path class="cls-1" d="M60,18.28a1.38,1.38,0,0,0,1.08-.45,1,1,0,0,0,.19-1l-.75-2.78a2.12,2.12,0,0,0-2-1.4H55.66A1.79,1.79,0,0,1,54,11.46l-.75-2.78a2.12,2.12,0,0,0-2-1.4H48.38a2.12,2.12,0,0,0-2,1.4l-.75,2.78A1.79,1.79,0,0,1,44,12.69H41.1a2.12,2.12,0,0,0-2,1.4l-.75,2.78a1,1,0,0,0,.19,1,1.38,1.38,0,0,0,1.08.45Z" transform="translate(-12.71 -6.28)"/></svg>
