<?xml version="1.0" encoding="UTF-8"?>
<svg width="16px" height="16px" viewBox="0 0 16 16" version="1.1" xmlns="http://www.w3.org/2000/svg" xmlns:xlink="http://www.w3.org/1999/xlink">
    <!-- Generator: Sketch 52.1 (67048) - http://www.bohemiancoding.com/sketch -->
    <title>info-fill</title>
    <desc>Created with Sketch.</desc>
    <g id="Page-1" stroke="none" stroke-width="1" fill="none" fill-rule="evenodd">
        <g id="变更提示" transform="translate(-1002.000000, -219.000000)">
            <g id="Group-6" transform="translate(10.000000, 59.000000)">
                <g id="Group" transform="translate(15.000000, 92.000000)">
                    <g id="Group-7-Copy" transform="translate(0.000000, 36.000000)">
                        <g id="info" transform="translate(977.000000, 32.000000)">
                            <rect id="Rectangle" fill="#000000" opacity="0" x="0" y="0" width="16" height="16"></rect>
                            <path d="M8,16 C3.581722,16 5.41083001e-16,12.418278 0,8 C-5.41083001e-16,3.581722 3.581722,8.11624501e-16 8,0 C12.418278,2.705415e-16 16,3.581722 16,8 C16,12.418278 12.418278,16 8,16 Z M9.408,5.534 C10.026,5.534 10.548,5.067 10.548,4.434 C10.548,3.871 10.15,3.5 9.6,3.5 C8.995,3.5 8.473,3.995 8.473,4.599 C8.473,5.163 8.844,5.534 9.408,5.534 Z M9.573,7.719 C10.067,6.385 9.435,6.029 8.844,6.029 C8.047,6.029 7.333,6.427 6.783,6.949 C6.605,7.128 6,7.704 6,7.952 C6,8.034 6.083,8.13 6.179,8.13 C6.426,8.13 7.085,6.935 7.594,6.935 C7.704,6.935 7.828,7.059 7.731,7.305 L6.77,9.725 C6.673,9.958 6.206,11.085 6.206,11.745 C6.206,12.266 6.55,12.5 7.044,12.5 C8.432,12.5 10.04,10.796 10.04,10.398 C10.04,10.274 9.944,10.191 9.875,10.191 C9.682,10.191 8.927,11.36 8.515,11.36 C8.404,11.36 8.35,11.263 8.35,11.168 C8.35,10.948 8.501,10.604 8.583,10.398 L9.573,7.719 Z" id="Shape" fill="#FF9C00" fill-rule="nonzero"></path>
                        </g>
                    </g>
                </g>
            </g>
        </g>
    </g>
</svg>