<svg id="图层_1" data-name="图层 1" xmlns="http://www.w3.org/2000/svg" viewBox="0 0 100 80"><defs><style>.cls-1{fill:#f4f9ff;}.cls-2{fill:#d5e6ff;}.cls-3{fill:#ddd;}</style></defs><title>画板 1</title><rect id="bg" class="cls-1" width="100" height="80" rx="4" ry="4"/><circle class="cls-2" cx="77" cy="24" r="13"/><path class="cls-2" d="M75.51,47.83a4,4,0,0,0-5.66,0L57.18,60.5,26.51,29.83a4,4,0,0,0-5.66,0L0,50.68V76a4,4,0,0,0,4,4H96a4,4,0,0,0,4-4V72.32Z"/><path class="cls-3" d="M96,0H4A4,4,0,0,0,0,4V76a4,4,0,0,0,4,4H96a4,4,0,0,0,4-4V4A4,4,0,0,0,96,0Zm2,76a2,2,0,0,1-2,2H4a2,2,0,0,1-2-2V4A2,2,0,0,1,4,2H96a2,2,0,0,1,2,2Z"/></svg>